<svg xmlns="http://www.w3.org/2000/svg" version="1.1" xmlns:xlink="http://www.w3.org/1999/xlink" xmlns:svgjs="http://svgjs.com/svgjs" width="1920" height="1080" preserveAspectRatio="none" viewBox="0 0 1920 1080"><g mask="url(&quot;#SvgjsMask1025&quot;)" fill="none"><rect width="1920" height="1080" x="0" y="0" fill="rgba(14, 156, 214, 1)"></rect><path d="M0 0L850.3 0L0 145.9z" fill="rgba(255, 255, 255, .1)"></path><path d="M0 145.9L850.3 0L1245.56 0L0 520.93z" fill="rgba(255, 255, 255, .075)"></path><path d="M0 520.93L1245.56 0L1420.8 0L0 869.5799999999999z" fill="rgba(255, 255, 255, .05)"></path><path d="M0 869.5799999999999L1420.8 0L1576.6399999999999 0L0 888.9399999999999z" fill="rgba(255, 255, 255, .025)"></path><path d="M1920 1080L1517.97 1080L1920 1078.72z" fill="rgba(0, 0, 0, .1)"></path><path d="M1920 1078.72L1517.97 1080L1011.1400000000001 1080L1920 607.48z" fill="rgba(0, 0, 0, .075)"></path><path d="M1920 607.48L1011.1400000000001 1080L667.1500000000001 1080L1920 489.23z" fill="rgba(0, 0, 0, .05)"></path><path d="M1920 489.23L667.1500000000001 1080L620.1600000000001 1080L1920 397.87z" fill="rgba(0, 0, 0, .025)"></path></g><defs><mask id="SvgjsMask1025"><rect width="1920" height="1080" fill="#ffffff"></rect></mask></defs></svg>